<svg width="36" height="21" viewBox="0 0 36 21" fill="none" xmlns="http://www.w3.org/2000/svg">
<path d="M18.0988 20.2295H20.1934C20.1934 20.2295 20.8266 20.1594 21.1486 19.811C21.4466 19.4911 21.4356 18.8908 21.4356 18.8908C21.4356 18.8908 21.394 16.0798 22.6998 15.6658C23.9859 15.2582 25.6378 18.3825 27.3884 19.5853C28.7117 20.4946 29.7173 20.2952 29.7173 20.2952L34.3994 20.2295C34.3994 20.2295 36.8488 20.0783 35.6876 18.1525C35.5934 17.9947 35.0106 16.7284 32.2062 14.1255C29.2704 11.4 29.6648 11.8426 33.2009 7.12989C35.3546 4.25977 36.2156 2.50703 35.9462 1.75773C35.6898 1.04349 34.1058 1.23191 34.1058 1.23191L28.8388 1.26258C28.8388 1.26258 28.4488 1.21 28.1574 1.38308C27.8748 1.55397 27.6929 1.94834 27.6929 1.94834C27.6929 1.94834 26.8582 4.16994 25.7452 6.05853C23.3987 10.0438 22.4588 10.2542 22.0754 10.0066C21.1837 9.43037 21.4071 7.68858 21.4071 6.45289C21.4071 2.59028 21.9921 0.979949 20.2657 0.563672C19.6917 0.425644 19.271 0.333625 17.8053 0.318288C15.9254 0.29857 14.3326 0.324861 13.4322 0.765238C12.8318 1.05882 12.3696 1.71391 12.6522 1.75116C13.0005 1.79717 13.7893 1.96368 14.2078 2.53332C14.7489 3.26728 14.7292 4.91924 14.7292 4.91924C14.7292 4.91924 15.0403 9.46542 14.004 10.0307C13.2919 10.4185 12.317 9.62755 10.2246 6.01033C9.15328 4.15899 8.34263 2.11047 8.34263 2.11047C8.34263 2.11047 8.18708 1.72925 7.90883 1.52549C7.57142 1.27792 7.09818 1.19904 7.09818 1.19904L2.08972 1.22972C2.08972 1.22972 1.33823 1.25163 1.06217 1.57807C0.816787 1.86947 1.04245 2.46978 1.04245 2.46978C1.04245 2.46978 4.96422 11.6432 9.40304 16.2683C13.476 20.5077 18.0988 20.2295 18.0988 20.2295Z" fill="#1E88E5"/>
</svg>
