<svg width="26" height="27" viewBox="0 0 26 27" fill="none" xmlns="http://www.w3.org/2000/svg">
<path d="M22.8228 0.314819H4.07275C2.34932 0.314819 0.947754 1.71638 0.947754 3.43982V22.1898C0.947754 23.9133 2.34932 25.3148 4.07275 25.3148H22.8228C24.5462 25.3148 25.9478 23.9133 25.9478 22.1898V3.43982C25.9478 1.71638 24.5462 0.314819 22.8228 0.314819Z" fill="#1976D2"/>
<path d="M20.7188 13.8125H16.8125V10.6875C16.8125 9.825 17.5125 9.90625 18.375 9.90625H19.9375V6H16.8125C14.2234 6 12.125 8.09844 12.125 10.6875V13.8125H9V17.7188H12.125V26.3125H16.8125V17.7188H19.1562L20.7188 13.8125Z" fill="#FAFAFA"/>
</svg>
