<svg width="26" height="26" viewBox="0 0 26 26" fill="none" xmlns="http://www.w3.org/2000/svg">
<path d="M18.1353 0.813721H8.76025C4.44619 0.813721 0.947754 4.31216 0.947754 8.62622V18.0012C0.947754 22.3153 4.44619 25.8137 8.76025 25.8137H18.1353C22.4493 25.8137 25.9478 22.3153 25.9478 18.0012V8.62622C25.9478 4.31216 22.4493 0.813721 18.1353 0.813721ZM23.604 18.0012C23.604 21.0168 21.1509 23.47 18.1353 23.47H8.76025C5.74463 23.47 3.2915 21.0168 3.2915 18.0012V8.62622C3.2915 5.6106 5.74463 3.15747 8.76025 3.15747H18.1353C21.1509 3.15747 23.604 5.6106 23.604 8.62622V18.0012Z" fill="url(#paint0_linear)"/>
<path d="M13.4478 7.06372C9.99619 7.06372 7.19775 9.86216 7.19775 13.3137C7.19775 16.7653 9.99619 19.5637 13.4478 19.5637C16.8993 19.5637 19.6978 16.7653 19.6978 13.3137C19.6978 9.86216 16.8993 7.06372 13.4478 7.06372ZM13.4478 17.22C11.2946 17.22 9.5415 15.4668 9.5415 13.3137C9.5415 11.159 11.2946 9.40747 13.4478 9.40747C15.6009 9.40747 17.354 11.159 17.354 13.3137C17.354 15.4668 15.6009 17.22 13.4478 17.22Z" fill="url(#paint1_linear)"/>
<path d="M20.1666 7.42782C20.6265 7.42782 20.9994 7.05496 20.9994 6.59502C20.9994 6.13507 20.6265 5.76221 20.1666 5.76221C19.7066 5.76221 19.3337 6.13507 19.3337 6.59502C19.3337 7.05496 19.7066 7.42782 20.1666 7.42782Z" fill="url(#paint2_linear)"/>
<defs>
<linearGradient id="paint0_linear" x1="3.23627" y1="23.5254" x2="23.6592" y2="3.10208" gradientUnits="userSpaceOnUse">
<stop stop-color="#FFC107"/>
<stop offset="0.507" stop-color="#F44336"/>
<stop offset="0.99" stop-color="#9C27B0"/>
</linearGradient>
<linearGradient id="paint1_linear" x1="9.02846" y1="17.733" x2="17.8671" y2="8.89442" gradientUnits="userSpaceOnUse">
<stop stop-color="#FFC107"/>
<stop offset="0.507" stop-color="#F44336"/>
<stop offset="0.99" stop-color="#9C27B0"/>
</linearGradient>
<linearGradient id="paint2_linear" x1="19.5777" y1="7.184" x2="20.7554" y2="6.00619" gradientUnits="userSpaceOnUse">
<stop stop-color="#FFC107"/>
<stop offset="0.507" stop-color="#F44336"/>
<stop offset="0.99" stop-color="#9C27B0"/>
</linearGradient>
</defs>
</svg>
